<?xml version="1.0" encoding="UTF-8"?>
<!-- Created with Inkscape (http://www.inkscape.org/) -->
<svg width="44.6997mm" height="22.9438mm" version="1.1" viewBox="0 0 44.6997 22.9438" xmlns="http://www.w3.org/2000/svg">
<title>Indianapolis Motor Speedway logo</title>
 <g transform="translate(-83.1368 -64.5794)">
  <g transform="matrix(.310872 0 0 -.310872 -87.2767 254.589)">
   <g transform="translate(648.094 585.49)">
    <path d="m0 0s-0.827 1.824-1.229 2.194c-0.403 0.37-13.691-11.502-13.691-11.502l-5.532-5.657-0.134-0.788 0.31 0.097-0.19-0.342v-0.032s0.503 0.359 1.597 0.813l3.273 1.022c8.348 4.4 10.553 5.102 16.65 8.459 0.949 0.523-0.353 4.314-1.054 5.736" style="fill:#0b0204"/>
   </g>
   <g transform="translate(647.587 583.432)">
    <path d="m0 0c-0.612 1.648-1.302 2.796-1.649 3.322-1.705-1.61-11.785-11.13-22.36-21.121 0.481-0.031 2.223 2.968 9.728 7.25 6.746 3.849 12.16 6.443 14.224 7.485 0.819 0.412 1.022 0.463 0.057 3.064" style="fill:#fd0"/>
   </g>
   <g transform="translate(647.277 588.893)">
    <path d="m0 0c-0.476 0.578-0.943 0.083-0.943 0.083l-26.554-25.012c0.287-0.038 0.58-0.055 0.878-0.049 0.444 9e-3 0.874 0.071 1.288 0.175 23.989 22.665 25.113 23.721 25.113 23.721 0.058 0.08 0.618 0.489 0.218 1.082" style="fill:#0b0204"/>
   </g>
   <g transform="translate(632.534 571.314)">
    <path d="m0 0-0.257 0.269-4.65-1.509s-0.019-0.013-0.05-0.035l0.585 0.816 1.176 3.047-1.013 1.047-7.624 2.45-4.922-0.103-2.024-0.621-1.744-1.969 0.272-5.824 0.035-0.161 7.264-4.728c0.349-0.058 0.709-0.086 1.075-0.078 1.266 0.026 2.43 0.461 3.379 1.178l0.522 0.73c3e-3 -0.171 5e-3 -0.281 5e-3 -0.281s3.125 3.277 7.971 5.772" style="fill:#0b0204"/>
   </g>
   <g transform="translate(642.25 597.242)">
    <path d="m0 0s2.79-4.008 3.113-6.619c0.016-0.74-0.682-1.559-0.944-1.878-0.262-0.318-0.593-1.594 1.461-3.621 0.959-0.976 0.91-0.796-0.543-1.855-1.452-1.06-9.335-6.519-10.913-8.129-1.577-1.609-6.234-5.669-6.234-5.669l-0.15 3.408z" style="fill:#0b0204"/>
   </g>
   <g transform="translate(643.328 587.497)">
    <path d="m0 0s0.139-1.413 1.418-2.575c0.693-0.551 0.387-0.812-0.254-1.307-0.641-0.494-9.955-7.113-14.133-11.7l-3.198-2.702z" style="fill:#0b0204"/>
   </g>
   <g transform="translate(642.056 595.422)">
    <path d="m0 0c-2.227-3.858-8.401-14.587-13.089-22.733l-2.002-3.479s15.757 19.237 16.077 19.584c0.321 0.346 1.118 1.347 1.101 2.117-0.024 0.988-1.444 3.447-2.087 4.511" style="fill:#0b0204"/>
   </g>
   <g transform="translate(642.798 597.98)">
    <path d="m0 0c-0.621 0.417-0.926-0.191-0.926-0.191l-19.365-33.528c1.231 0.448 2.275 1.302 2.982 2.407l0.012-4e-3c5.188 9.018 17.276 30.028 17.401 30.217 0.158 0.241 0.452 0.646-0.104 1.099" style="fill:#0b0204"/>
   </g>
   <g transform="translate(591.41 582.944)">
    <path d="m0 0c0.102 0.071 2.448 3.363 3.771 4.391 1.325 1.028 2.13 0.422 2.729-0.134 0.598-0.556 1.412 0.313 1.311 0.937-0.102 0.624 14.143-15.81 14.143-15.81l2.9-3.458-0.885-2.166-23.952 15.442z" style="fill:#0b0204"/>
   </g>
   <g transform="translate(599.18 585.893)">
    <path d="m0 0s0.895 0.411 1.001 1.096c0.106 0.686 12.539-13.571 12.539-13.571l0.148-0.52z" style="fill:#006838"/>
   </g>
   <g transform="translate(618.976 565.426)">
    <path d="m0 0-0.476 1.519-4.51 4.407-16.972 14.816s-0.735 0.451-1.299-0.027c-0.518-0.441-2.025-2.447-2.819-3.523 3.305-2.182 18.885-12.457 26.076-17.192" style="fill:#006838"/>
   </g>
   <g transform="translate(617.49 564.783)">
    <path d="m0 0c0.925-0.572 2.011-0.892 3.167-0.868 0.193 4e-3 0.383 0.02 0.57 0.043-6.965 4.585-29.528 19.438-29.723 19.584-0.231 0.172-0.618 0.489-1.103-0.037-0.453-0.596 0.136-0.937 0.136-0.937l26.946-17.791z" style="fill:#0b0204"/>
   </g>
   <g transform="translate(595.029 594.645)">
    <path d="m0 0 3.537 2.454s3.117 2.341 4.284 0.331c0.594-1.023 2.204 0.455 2.204 0.455l9.764-20.825-2.17-3.505-14.321 16.812z" style="fill:#0b0204"/>
   </g>
   <g transform="translate(603.706 596.076)">
    <path d="m0 0s0.979 0.084 1.768 0.674c0.787 0.591 8.792-18.513 8.792-18.513l-0.388-0.062z" style="fill:#fff"/>
   </g>
   <g transform="translate(618.733 566.927)">
    <path d="m0 0-3.19 8.208-13.485 20.724s-0.92 1.603-1.829 1.128c-1.062-0.554-3.221-2.122-4.283-2.909 2.301-2.749 16.726-19.932 22.787-27.151" style="fill:#fff"/>
   </g>
   <g transform="translate(620.658 563.915)">
    <path d="m0 0c0.192 4e-3 0.382 0.021 0.568 0.043-5.134 6.114-25.963 30.917-26.113 31.12-0.172 0.231-0.452 0.645-1.067 0.28-0.606-0.441-0.139-0.936-0.139-0.936l25.414-30.378c0.432-0.093 0.878-0.138 1.337-0.129" style="fill:#0b0204"/>
   </g>
   <g transform="translate(602.706 604.324)">
    <path d="m0 0s1.765 1.374 8.091 2.355c0.986 0.095 1.706-0.585 1.915-1.531 0.018-0.082 0.199-1.615 4.285-0.526 4.407 1.174 3.278-24.068 3.278-24.068l0.15-7.216-3.607-0.678-14.098 30.994z" style="fill:#0b0204"/>
   </g>
   <g transform="translate(612.92 603.332)">
    <path d="m0 0s1.211-0.906 4.333 0.09l2.355-22.268 0.613-10.328z" style="fill:#0072b4"/>
   </g>
   <g transform="translate(620.407 566.201)">
    <path d="m0 0-0.312 5.111-8.806 33.143s-0.184 1.235-1.516 1.017c-2.807-0.462-5.65-1.704-6.44-2.066 1.653-3.617 12.644-27.556 17.074-37.205" style="fill:#0072b4"/>
   </g>
   <g transform="translate(620.658 563.915)">
    <path d="m0 0c0.261 5e-3 0.517 0.029 0.768 0.068-3.286 7.152-18.559 40.411-18.653 40.651-0.104 0.268-0.263 0.742-0.954 0.553-0.7-0.265-0.382-0.866-0.382-0.866l18.429-40.367c0.26-0.031 0.523-0.044 0.792-0.039" style="fill:#0b0204"/>
   </g>
   <g transform="translate(632.842 605.936)">
    <path d="m0 0c1.884-0.66 7.226-4.995 7.726-6.096 0.368-0.529 0.156-1.07-0.317-1.974-0.472-0.904-0.733-1.267 1.68-3.407 0.455-0.392 1.859-1.085 0.265-3.028-4.506-5.493-4.555-5.446-10.446-13.492l-3.438-3.742-3.916 0.231z" style="fill:#0b0204"/>
   </g>
   <g transform="translate(639.446 595.762)">
    <path d="m 0,0 -12.605,-20.571 -2.445,-6.205 17.762,23.965 c 0,0 -1.732,0.82 -2.023,1.887 C 0.399,0.142 0,0 0,0" style="fill:#e21b23"/>
   </g>
   <g transform="translate(639.361 599.859)">
    <path d="m0 0c-1.288 1.584-4.708 3.892-5.987 4.728-1.079-4.081-5.186-19.774-8.075-30.768l1.381 0.029 2.811 6.805c8.146 14.428 8.705 15.644 9.122 16.509 0.402 0.836 1.098 2.189 0.748 2.697" style="fill:#e21b23"/>
   </g>
   <g transform="translate(633.31 606.837)">
    <path d="m0 0c-0.709 0.239-0.844-0.427-0.844-0.427l-11.281-42.456c0.577 0.064 1.129 0.212 1.643 0.435 2.126 8.109 10.792 41.175 10.87 41.415 0.09 0.274 0.266 0.742-0.388 1.033" style="fill:#0b0204"/>
   </g>
   <g transform="translate(634.122 601.201)">
    <path d="m 0,0 -7.974,2.226 -6.512,-24.252 0.906,-12.471 5.717,2.004 c 0.521,2.728 2.917,12.528 4.252,17.07 1.827,6.217 3.719,11.5 4.694,13.248 C 2.033,-0.411 0,0 0,0" style="fill:#0b0204"/>
   </g>
   <g transform="translate(634.222 599.725)">
    <path d="m0 0c4e-3 8e-3 8e-3 0.016 0.012 0.023-0.099 0.056-0.233 0.11-0.341 0.135l-0.047 9e-3 -0.017 6e-3 -6.797 1.898-4.834-25.862 4.227-1.485c0.659 3.071 1.847 7.874 2.983 11.739 1.818 6.19 3.752 11.625 4.814 13.537" style="fill:#0b0204"/>
   </g>
   <g transform="translate(625.121 608.848)">
    <path d="m0 0-7.479 1.281-1.177-0.734 2.874-31.4 7.128-0.032s2.534 15.256 3.854 22.255c1.427 7.567-5.2 8.63-5.2 8.63" style="fill:#0b0204"/>
   </g>
   <g transform="translate(628.708 591.177)">
    <path d="m0 0c-0.297-1.712-0.591-3.432-0.864-5.039 0.345-0.359 0.78-0.694 1.295-0.88 0.09 0.315 0.179 0.626 0.268 0.93 0.405 1.374 0.814 2.71 1.217 3.979-0.873 0.297-1.488 0.665-1.916 1.01" style="fill:#fff"/>
   </g>
   <g transform="translate(626.772 579.787)">
    <path d="m0 0c-0.19-1.141-0.305-1.824-0.305-1.824l-3.886 0.018-0.383-2.047 4.227-1.484c0.312 1.451 0.742 3.289 1.228 5.231z" style="fill:#fff"/>
   </g>
   <g transform="translate(633.893 599.883)">
    <path d="m0 0-0.047 9e-3 -0.016 6e-3 -3.407 0.951c-0.027-0.205-0.06-0.415-0.101-0.631-0.203-1.075-0.435-2.347-0.682-3.728 0.656-0.426 1.623-0.906 2.783-1.029 0.71 1.936 1.337 3.433 1.799 4.264 4e-3 8e-3 8e-3 0.016 0.012 0.023-0.099 0.056-0.233 0.111-0.341 0.135" style="fill:#fff"/>
   </g>
   <g transform="translate(628.375 605.424)">
    <path d="m0 0c-1.246 1.792-3.437 2.188-3.459 2.191l-7.057 1.208c0.209-2.478 0.65-7.655 1.152-13.535l1.468-16.049 4.93-0.022c0.598 3.574 2.577 15.364 3.685 21.232 0.387 2.057 0.145 3.73-0.719 4.975" style="fill:#0b0204"/>
   </g>
   <g transform="translate(618.901 596.578)">
    <path d="m0 0c0.036-0.426 0.073-0.855 0.11-1.29l0.572-6.24c0.915 0.192 2.877 0.431 4.496-0.383l-0.122 6.513c-1.896 0.862-4.009 1.25-5.056 1.4" style="fill:#fff"/>
   </g>
   <g transform="translate(617.86 608.824)">
    <path d="m0 0c0.097-1.148 0.243-2.876 0.423-4.984 1.045-0.053 3.35-0.247 5.53-0.973l-0.093 4.954z" style="fill:#fff"/>
   </g>
   <g transform="translate(627.539 591.749)">
    <path d="m0 0c0.393 2.267 0.785 4.501 1.134 6.421-0.302 2.512-2.506 3.914-4.861 4.698l0.144-7.69c1.631-0.741 3.097-1.834 3.583-3.429" style="fill:#fff"/>
   </g>
   <g transform="translate(624.078 588.665)">
    <path d="m0 0 0.178-9.442 1.153-6e-3c0.208 1.244 0.584 3.483 1.031 6.121-0.367 1.785-1.289 2.787-2.362 3.327" style="fill:#fff"/>
   </g>
   <g transform="translate(620.366 563.918)">
    <path d="m0 0c0.097-3e-3 0.193-4e-3 0.291-2e-3 0.351 7e-3 0.693 0.047 1.025 0.115-0.677 7.924-3.943 46.087-3.951 46.345-8e-3 0.287 1e-3 0.788-0.713 0.841-0.748-0.013-0.651-0.686-0.651-0.686z" style="fill:#0b0204"/>
   </g>
   <g transform="translate(611.557 566.668)">
    <path d="m0 0c-1.307 0-2.459 0.659-3.146 1.662l-4e-3 -3e-3 -3e-3 -3e-3c-2.675 3.518-7.699 5.889-13.46 5.889-1.399 0-2.752-0.142-4.04-0.404l-3e-3 6e-3c-5.68-1.035-12.714-1.648-20.337-1.648-8.567 0-16.356 0.767-22.347 2.044l-6e-3 -0.039c-0.019-0.212-0.032-0.426-0.032-0.641 0-4.698 4.687-8.697 11.446-10.36 1.328-4.445 7.066-7.898 14.151-8.343h-1e-3l0.422-0.151c2.153-0.698 4.993-1.046 8.083-0.886 0.347 0.018 0.69 0.043 1.029 0.073l0.059-0.092c1.232-2.019 5.458-3.002 10.319-2.314l0.064-0.075c1.542-1.733 5.227-1.882 8.948-0.304v-1e-3l0.068-0.051c0.974-0.831 2.842-0.918 5.022-0.33 0.258 1.853 1.844 3.281 3.768 3.281h8.604v12.69z" style="fill:#0b0204"/>
   </g>
   <g transform="translate(628.589 566.668)">
    <path d="m0 0c1.307 0 2.459 0.659 3.145 1.662l5e-3 -3e-3 3e-3 -3e-3c2.675 3.518 7.699 5.889 13.46 5.889 1.398 0 2.752-0.142 4.04-0.404l3e-3 6e-3c5.68-1.035 12.714-1.648 20.337-1.648 8.567 0 16.356 0.767 22.346 2.044l6e-3 -0.039c0.02-0.212 0.033-0.426 0.033-0.641 0-4.698-4.687-8.697-11.446-10.36-1.328-4.445-7.066-7.898-14.151-8.343l-0.421-0.151c-2.154-0.698-4.993-1.046-8.083-0.886-0.347 0.018-0.69 0.043-1.029 0.073l-0.059-0.092c-1.232-2.019-5.459-3.002-10.319-2.314l-0.064-0.075c-1.542-1.733-5.899-1.674-9.836-0.326-1.698 0.573-2.684 1.246-4.468 2.754-0.258 1.853-1.578 0.167-3.502 0.167h-8.604v12.69z" style="fill:#0b0204"/>
   </g>
   <g transform="translate(688.876 572.394)">
    <path d="m0 0c-5.36-1.045-11.803-1.759-18.747-1.98-8.225-0.262-15.703 0.98-21.631 1.98-1.252 0.129-2.577 0.292-3.855 0.292-5.412 0-10.189-2.678-13.324-5.687l-2e-3 2e-3c-0.685-0.663-1.617-1.072-2.645-1.072h-1.99c-0.192-1.259-0.327-2.703-0.391-4.261h1e-3c-0.027-0.669-0.042-1.359-0.042-2.065 0-1.476 0.063-2.885 0.179-4.175h1.067v-8e-3l5.265 0.905c-0.207 0.626 0.594-1.406 0.493-0.801 0.72-1.228 2.148-2.102 3.265-2.538 3.068-1.198 6.581-1.784 8.06-0.463-0.676 0.463-1.351 1.001-2.009 1.606-1.395 1.286-2.484 2.682-3.206 4.001h0.013c1.031-1.611 3.392-3.269 6.395-4.306 4.005-1.383 7.796-1.192 9.101 0.334-1.157 0.574-2.349 1.345-3.494 2.295-0.546 0.452-1.052 0.922-1.518 1.402 1.613-1.225 4.411-2.216 7.666-2.57 2.486-0.27 4.792-0.119 6.562 0.346-0.547 0.107-1.098 0.235-1.65 0.39-1.763 0.496-3.378 1.197-4.793 2.04 2.177-0.982 4.824-1.56 7.681-1.56 6.547 0 11.998 3.027 13.195 7.034h-6e-3l6e-3 0.018c-1.568 0.05-3.216 0.278-4.894 0.694 7.798 0.035 14.223 3.561 15.248 8.129-2e-3 0-4e-3 0-5e-3 -1e-3 1e-3 7e-3 3e-3 0.013 5e-3 0.019" style="fill:#a5915c"/>
   </g>
   <g transform="translate(631.777 575.862)">
    <path d="m0 0c-1.653 4.703-4.043 7.292-6.727 7.292h-8.818c-2.684 0-5.073-2.589-6.727-7.292-1.474-4.189-2.285-9.724-2.285-15.584 0-5.741 0.782-11.191 2.204-15.349 1.3-3.805 3.017-6.232 5.02-7.13 0 0 0.937-0.369 2.005-0.387h8.383s-0.09 0 0 0c1.031 0 2.005 0.386 2.005 0.386 2.002 0.899 3.72 3.326 5.021 7.131 1.421 4.157 2.204 9.608 2.204 15.349 0 5.86-0.811 11.395-2.285 15.584" style="fill:#0b0204"/>
   </g>
   <g transform="translate(624.977 581.95)">
    <path d="m0 0h-9.391c-0.375 0-0.743-0.077-1.104-0.213 3.862-1.469 6.836-10.514 6.836-21.459s-2.975-19.987-6.836-21.454c0.282-0.107 0.567-0.178 0.857-0.202v-6e-3h0.082c0.055-2e-3 0.11-0.011 0.165-0.011 0.056 0 0.111 9e-3 0.166 0.011h9.06c0.055-2e-3 0.11-0.011 0.165-0.011 0.056 0 0.111 9e-3 0.166 0.011h0.081v6e-3c4.272 0.356 7.695 9.912 7.695 21.656 0 11.968-3.555 21.672-7.942 21.672" style="fill:#a5915c"/>
   </g>
   <g transform="translate(622.462 560.598)">
    <path d="m0 0c0-11.905-3.213-21.556-7.176-21.556s-7.176 9.651-7.176 21.556c0 11.906 3.213 21.557 7.176 21.557s7.176-9.651 7.176-21.557" style="fill:#0b0204"/>
   </g>
   <g transform="translate(620.672 576.038)">
    <path d="m0 0c-1.493 4.191-3.492 6.5-5.628 6.5-0.313 0-0.643-0.058-0.976-0.171l0.018-0.185c0.182-0.024 0.361-0.065 0.54-0.119-3.653-1.001-6.516-10.228-6.516-21.465 0-11.357 2.924-20.662 6.633-21.496-0.342-0.118-0.692-0.18-1.047-0.181l-0.041-0.182c0.463-0.225 0.931-0.34 1.389-0.34 2.136 0 4.135 2.308 5.628 6.499 1.483 4.161 2.3 9.69 2.3 15.57s-0.817 11.409-2.3 15.57" style="fill:#0b0204"/>
   </g>
   <g transform="translate(621.902 560.598)">
    <path d="m0 0c0-11.378-3.088-20.601-6.896-20.601-3.807 0-6.895 9.223-6.895 20.601s3.088 20.602 6.895 20.602c3.808 0 6.896-9.224 6.896-20.602" style="fill:#a5915c"/>
   </g>
   <g transform="translate(620.93,560.903)">
    <path d="m0 0c0-11.061-2.95-20.028-6.591-20.028-3.639 0-6.59 8.967-6.59 20.028 0 11.062 2.951 20.028 6.59 20.028 3.641 0 6.591-8.966 6.591-20.028" style="fill:#0b0204"/>
   </g>
   <g transform="translate(617.233 539.997)">
    <path d="m0 0 7.325 0.013s3.863-0.519 5.902 4.592l0.311-0.208-1.346-3.519-1.611-1.58-2.209-1.174-7.043-0.275-3.14 0.201-0.249 0.752z" style="fill:#0b0204"/>
   </g>
   <g transform="translate(619.83 560.018)">
    <path d="m0 0c0 10.852-2.555 19.648-5.706 19.648-3.15 0-5.704-8.796-5.704-19.648 0-8.853 1.7-16.337 4.036-18.794h-1e-3s0.077-0.086 0.216-0.211c0.028-0.025 0.055-0.048 0.083-0.072 0.019-0.017 0.039-0.033 0.06-0.05l0.038-0.031c0.374-0.3 0.989-0.698 1.753-0.829l0.011 0.411c2.921 0.859 5.214 9.294 5.214 19.576" style="fill:#a5915c"/>
   </g>
   <g transform="translate(616.896 560.598)">
    <path d="m0 0c0-5.852-1.363-10.595-3.045-10.595s-3.045 4.743-3.045 10.595 1.363 10.596 3.045 10.596 3.045-4.744 3.045-10.596" style="fill:#0b0204"/>
   </g>
   <g transform="translate(613.319 566.372)">
    <path d="m0 0h-2.707c-2.076 0-3.071 1.042-3.272 1.312-0.843 1.125-2.257 2.04-2.558 2.228-2.666 1.557-5.844 2.636-9.278 2.636-1.28 0-2.604-0.162-3.856-0.291-5.928-1.001-13.406-2.242-21.632-1.98-6.944 0.22-13.385 0.935-18.746 1.98 1.028-4.583 7.489-8.116 15.32-8.13-1.703-0.427-3.376-0.66-4.965-0.712 1.196-4.006 6.647-7.034 13.194-7.034 2.856 0 5.504 0.578 7.682 1.561-1.415-0.843-3.031-1.545-4.793-2.041-0.553-0.155-1.104-0.283-1.651-0.39 1.77-0.465 4.076-0.615 6.562-0.346 3.255 0.354 6.054 1.346 7.666 2.57-0.466-0.479-0.973-0.949-1.518-1.402-1.145-0.949-2.337-1.721-3.495-2.294 1.305-1.527 5.097-1.717 9.102-0.334 3.003 1.036 5.364 2.695 6.395 4.306h0.013c-0.722-1.32-1.812-2.716-3.206-4.001-0.657-0.606-1.334-1.143-2.009-1.607 1.479-1.321 4.722-1.002 7.705 0.873 1.568 0.984 2.779 2.221 3.499 3.449-0.099-0.605-0.251-1.226-0.458-1.852-0.364-1.097-0.856-2.083-1.424-2.911 0.552-0.246 1.293-0.209 2.124 0.065l-1e-3 5e-3c0.334 0.118 0.652 0.273 0.947 0.458 0.113 0.081 1.047 0.759 1.442 1.222 0.421 0.493 0.654 1.111 1.925 1.112h1.993v6e-3c0.773 0.123 1.392 2.658 1.392 5.768s-0.619 5.65-1.392 5.774" style="fill:#a5915c"/>
   </g>
   <g transform="translate(607.339 567.684)">
    <path d="m0 0c0.201-0.269 1.196-1.312 3.272-1.312h2.284l-0.331 0.986-1.607-0.035s-1.719-0.166-2.653 1.13c-1.334 0.696-3.581 1.495-3.581 1.495s1.67-1 2.616-2.264" style="fill:#0b0204"/>
   </g>
   <g transform="translate(607.947 552.482)">
    <path d="m0 0s1.033 0.737 1.454 1.23c0.421 0.494 0.654 1.112 1.928 1.112 1.272 0 1.819-1.206 1.819-1.206s-1.763 0.174-2.739-1.108c-0.086-0.111-0.99-1.413-2.816-1.864-0.707 0.44-0.398 0.737-0.398 0.737" style="fill:#0b0204"/>
   </g>
   <g transform="translate(559.985 569.479)">
    <path d="m0 0s14.015-1.972 31.182-0.15c12.376 1.133 14.706-3.07 14.706-3.07s-4.601 3.041-15.008 1.751c-10.406-1.29-25.903-0.584-30.88 1.469" style="fill:#0b0204"/>
   </g>
   <g transform="translate(681.028 569.479)">
    <path d="m0 0s-14.014-1.972-31.181-0.15c-12.377 1.133-14.707-3.07-14.707-3.07s4.602 3.041 15.008 1.751 25.904-0.584 30.88 1.469" style="fill:#0b0204"/>
   </g>
   <path d="m569.15 558.972h-1.087v5.807h1.087z" style="fill:#0b0204"/>
   <g transform="translate(573.818 558.972)">
    <path d="m0 0h-0.968l-1.87 3.234v-3.234h-1.076v5.807h0.965l1.864-3.218v3.218h1.085z" style="fill:#0b0204"/>
   </g>
   <path d="m580.094 558.972h-1.087v5.807h1.087z" style="fill:#0b0204"/>
   <g transform="translate(583.14 561.159)">
    <path d="m0 0-0.528 2.12-0.534-2.12zm1.656-2.187h-1.113l-0.293 1.177h-1.566l-0.299-1.177h-1.114l1.595 5.807h1.201z" style="fill:#0b0204"/>
   </g>
   <g transform="translate(589.026 558.972)">
    <path d="m0 0h-0.968l-1.87 3.234v-3.234h-1.076v5.807h0.965l1.864-3.218v3.218h1.085z" style="fill:#0b0204"/>
   </g>
   <g transform="translate(592.067 561.159)">
    <path d="m0 0-0.528 2.12-0.534-2.12zm1.656-2.187h-1.112l-0.294 1.177h-1.566l-0.299-1.177h-1.114l1.595 5.807h1.201z" style="fill:#0b0204"/>
   </g>
   <g transform="translate(606.032 558.972)">
    <path d="m0 0h-2.738v5.807h1.087v-4.416h1.651z" style="fill:#0b0204"/>
   </g>
   <path d="m607.513 558.972h-1.087v5.807h1.087z" style="fill:#0b0204"/>
   <g transform="translate(600.123 560.105)">
    <path d="m0 0c-0.951 0-1.723 0.795-1.723 1.776s0.772 1.776 1.723 1.776c0.952 0 1.723-0.795 1.723-1.776s-0.771-1.776-1.723-1.776m0 4.673c-1.552 0-2.81-1.297-2.81-2.897s1.258-2.897 2.81-2.897 2.811 1.297 2.811 2.897-1.259 2.897-2.811 2.897" style="fill:#0b0204"/>
   </g>
   <g transform="translate(575.624 560.112)">
    <path d="m0 0v3.552c0.952 0 1.723-0.795 1.723-1.776s-0.771-1.776-1.723-1.776m0 4.673h-1.087v-5.806h1.087c1.552 0 2.811 1.309 2.811 2.909s-1.259 2.897-2.811 2.897" style="fill:#0b0204"/>
   </g>
   <g transform="translate(611.446 561.405)">
    <path d="m0 0c-3e-3 7e-3 -8e-3 0.016-0.012 0.024l-2e-3 4e-3c-3e-3 6e-3 -6e-3 0.011-7e-3 0.016l-0.013 0.025h-1e-3c-0.084 0.159-0.187 0.302-0.305 0.426-0.278 0.273-0.622 0.442-0.984 0.561-0.306 0.101-0.711 0.208-0.812 0.569-0.066 0.239 0.031 0.504 0.224 0.648 0.184 0.136 0.422 0.146 0.637 0.097 0.443-0.102 0.834-0.409 1.166-0.714l0.054-0.05v1.372l-0.011 0.011c-0.546 0.467-1.371 0.623-2.05 0.439-0.316-0.086-0.605-0.255-0.814-0.516-0.209-0.262-0.324-0.593-0.352-0.929-0.048-0.553 0.127-1.138 0.509-1.538 0.162-0.154 0.357-0.264 0.563-0.344 0.226-0.088 0.465-0.127 0.692-0.212 0.2-0.074 0.395-0.191 0.491-0.395 0.091-0.197 0.081-0.431-4e-3 -0.629-0.178-0.334-0.575-0.351-0.892-0.257-0.472 0.142-0.888 0.468-1.254 0.793l-0.053 0.048v-1.372l0.013-0.01c0.596-0.43 1.358-0.736 2.093-0.59 0.336 0.067 0.648 0.227 0.878 0.491 0.23 0.265 0.367 0.608 0.411 0.96 0.042 0.34-1e-3 0.695-0.136 1.009" style="fill:#0b0204"/>
   </g>
   <g transform="translate(595.467 562.148)">
    <path d="m0 0c-8e-3 0-0.016 1e-3 -0.023 1e-3v-1e-3h-0.323v1.64h0.323v-2e-3c7e-3 1e-3 0.015 2e-3 0.023 2e-3 0.359 0 0.652-0.368 0.652-0.82 0-0.453-0.293-0.82-0.652-0.82m-0.023 2.63h-1.406v-5.806h1.087v2.185h0.297v1e-3c8e-3 0 0.014-1e-3 0.022-1e-3 0.969 0 1.755 0.811 1.755 1.811s-0.786 1.81-1.755 1.81" style="fill:#0b0204"/>
   </g>
   <g transform="translate(648.514 558.973)">
    <path d="m0 0h-2.802v5.806h2.756v-1.164h-1.636v-1.064h1.561v-1.169h-1.561v-1.24h1.682z" style="fill:#0b0204"/>
   </g>
   <g transform="translate(652.088 558.973)">
    <path d="m0 0h-2.802v5.806h2.756v-1.164h-1.636v-1.064h1.561v-1.169h-1.561v-1.24h1.682z" style="fill:#0b0204"/>
   </g>
   <g transform="translate(663.384 564.78)">
    <path d="m0 0-1.608-5.882h-0.649l-0.966 3.423-0.989-3.423h-0.654l-1.576 5.882h1.161l0.771-3.217 0.885 3.217h0.803l0.868-3.217 0.808 3.217z" style="fill:#0b0204"/>
   </g>
   <g transform="translate(665.902 561.16)">
    <path d="m0 0-0.545 2.12-0.549-2.12zm1.708-2.187h-1.147l-0.304 1.178h-1.613l-0.309-1.178h-1.148l1.644 5.807h1.238z" style="fill:#0b0204"/>
   </g>
   <g transform="translate(671.21 564.78)">
    <path d="m0 0-1.456-3.146v-2.66h-1.121v2.626l-1.483 3.18h1.164l0.853-1.826 0.855 1.826z" style="fill:#0b0204"/>
   </g>
   <g transform="translate(653.982 560.11)">
    <path d="m0 0v3.552c0.981 0 1.776-0.795 1.776-1.776s-0.795-1.776-1.776-1.776m0 4.673h-1.121v-5.806h1.121c1.6 0 2.896 1.309 2.896 2.909s-1.296 2.897-2.896 2.897" style="fill:#0b0204"/>
   </g>
   <g transform="translate(641.118 561.404)">
    <path d="m0 0c-4e-3 7e-3 -8e-3 0.015-0.013 0.024l-2e-3 3e-3c-3e-3 6e-3 -6e-3 0.012-7e-3 0.016l-0.014 0.026v-1e-3c-0.088 0.16-0.193 0.303-0.315 0.426-0.287 0.274-0.641 0.443-1.015 0.562-0.315 0.101-0.733 0.208-0.836 0.569-0.069 0.239 0.031 0.503 0.23 0.647 0.191 0.137 0.436 0.146 0.657 0.097 0.458-0.102 0.86-0.408 1.202-0.713l0.055-0.05v1.372l-0.011 0.01c-0.563 0.467-1.412 0.624-2.114 0.439-0.324-0.085-0.623-0.254-0.838-0.515-0.215-0.263-0.334-0.593-0.364-0.93-0.048-0.552 0.132-1.138 0.525-1.537 0.168-0.154 0.369-0.264 0.582-0.344 0.232-0.088 0.479-0.128 0.713-0.212 0.206-0.075 0.407-0.191 0.505-0.395 0.095-0.198 0.083-0.432-3e-3 -0.63-0.184-0.333-0.593-0.351-0.92-0.256-0.486 0.142-0.915 0.468-1.293 0.793l-0.055 0.048v-1.372l0.014-0.011c0.615-0.429 1.4-0.736 2.158-0.589 0.347 0.066 0.668 0.226 0.905 0.491s0.378 0.608 0.424 0.959c0.043 0.341-1e-3 0.695-0.141 1.01" style="fill:#0b0204"/>
   </g>
   <g transform="translate(643.431 562.147)">
    <path d="m0 0c-8e-3 0-0.016 1e-3 -0.023 1e-3v-1e-3h-0.332v1.639h0.332v-1e-3c7e-3 0 0.015 1e-3 0.023 1e-3 0.371 0 0.672-0.367 0.672-0.82 0-0.452-0.301-0.819-0.672-0.819m-0.024 2.63h-1.449v-5.807h1.121v2.186h0.306v1e-3c8e-3 0 0.015-1e-3 0.022-1e-3 1 0 1.81 0.81 1.81 1.81s-0.81 1.811-1.81 1.811" style="fill:#0b0204"/>
   </g>
   <g transform="translate(648.514 558.973)">
    <path d="m0 0h-2.802v5.806h2.756v-1.164h-1.636v-1.064h1.561v-1.169h-1.561v-1.24h1.682z" style="fill:#0b0204"/>
   </g>
   <g transform="translate(652.088 558.973)">
    <path d="m0 0h-2.802v5.806h2.756v-1.164h-1.636v-1.064h1.561v-1.169h-1.561v-1.24h1.682z" style="fill:#0b0204"/>
   </g>
   <g transform="translate(663.384 564.78)">
    <path d="m0 0-1.608-5.882h-0.649l-0.966 3.423-0.989-3.423h-0.654l-1.576 5.882h1.161l0.771-3.217 0.885 3.217h0.803l0.868-3.217 0.808 3.217z" style="fill:#0b0204"/>
   </g>
   <g transform="translate(665.902 561.16)">
    <path d="m0 0-0.545 2.12-0.549-2.12zm1.708-2.187h-1.147l-0.304 1.178h-1.613l-0.309-1.178h-1.148l1.644 5.807h1.238z" style="fill:#0b0204"/>
   </g>
   <g transform="translate(671.21 564.78)">
    <path d="m0 0-1.456-3.146v-2.66h-1.121v2.626l-1.483 3.18h1.164l0.853-1.826 0.855 1.826z" style="fill:#0b0204"/>
   </g>
   <g transform="translate(653.982 560.11)">
    <path d="m0 0v3.552c0.981 0 1.776-0.795 1.776-1.776s-0.795-1.776-1.776-1.776m0 4.673h-1.121v-5.806h1.121c1.6 0 2.896 1.309 2.896 2.909s-1.296 2.897-2.896 2.897" style="fill:#0b0204"/>
   </g>
   <g transform="translate(641.118 561.404)">
    <path d="m0 0c-4e-3 7e-3 -8e-3 0.015-0.013 0.024l-2e-3 3e-3c-3e-3 6e-3 -6e-3 0.012-7e-3 0.016l-0.014 0.026v-1e-3c-0.088 0.16-0.193 0.303-0.315 0.426-0.287 0.274-0.641 0.443-1.015 0.562-0.315 0.101-0.733 0.208-0.836 0.569-0.069 0.239 0.031 0.503 0.23 0.647 0.191 0.137 0.436 0.146 0.657 0.097 0.458-0.102 0.86-0.408 1.202-0.713l0.055-0.05v1.372l-0.011 0.01c-0.563 0.467-1.412 0.624-2.114 0.439-0.324-0.085-0.623-0.254-0.838-0.515-0.215-0.263-0.334-0.593-0.364-0.93-0.048-0.552 0.132-1.138 0.525-1.537 0.168-0.154 0.369-0.264 0.582-0.344 0.232-0.088 0.479-0.128 0.713-0.212 0.206-0.075 0.407-0.191 0.505-0.395 0.095-0.198 0.083-0.432-3e-3 -0.63-0.184-0.333-0.593-0.351-0.92-0.256-0.486 0.142-0.915 0.468-1.293 0.793l-0.055 0.048v-1.372l0.014-0.011c0.615-0.429 1.4-0.736 2.158-0.589 0.347 0.066 0.668 0.226 0.905 0.491s0.378 0.608 0.424 0.959c0.043 0.341-1e-3 0.695-0.141 1.01" style="fill:#0b0204"/>
   </g>
   <g transform="translate(643.431 562.147)">
    <path d="m0 0c-8e-3 0-0.016 1e-3 -0.023 1e-3v-1e-3h-0.332v1.639h0.332v-1e-3c7e-3 0 0.015 1e-3 0.023 1e-3 0.371 0 0.672-0.367 0.672-0.82 0-0.452-0.301-0.819-0.672-0.819m-0.024 2.63h-1.449v-5.807h1.121v2.186h0.306v1e-3c8e-3 0 0.015-1e-3 0.022-1e-3 1 0 1.81 0.81 1.81 1.81s-0.81 1.811-1.81 1.811" style="fill:#0b0204"/>
   </g>
   <g transform="translate(626.833 576.893)">
    <path d="m0 0c-0.153-0.697-0.327-1.401-0.521-2.109-0.054-0.22-0.111-0.439-0.169-0.66-0.204 0.221-0.41 0.44-0.617 0.66-0.692 0.708-1.404 1.412-2.135 2.109h-1.176c0.769-1.859 1.4-3.759 1.891-5.687h1.296c-0.284 1.117-0.615 2.225-0.994 3.32 0.66-0.687 1.3-1.378 1.922-2.073h0.665c0.224 0.695 0.428 1.386 0.614 2.073 0.379-1.095 0.71-2.203 0.995-3.32h1.296c-0.491 1.928-1.122 3.828-1.891 5.687z" style="fill:#0b0204"/>
   </g>
   <g transform="translate(631.116 562.11)">
    <path d="m0 0h-2.232c0.063-1.493 0.046-2.989-0.049-4.48h-1.275c0.097 1.491 0.114 2.987 0.049 4.48h-2.197c-0.021 0.479-0.05 0.958-0.087 1.437h5.705c0.036-0.479 0.065-0.958 0.086-1.437" style="fill:#0b0204"/>
   </g>
   <g transform="translate(626.693 547.108)">
    <path d="m0 0c-0.01 0-0.02 1e-3 -0.028 1e-3l-1e-3 -1e-3h-1e-3c0-1e-3 -1e-3 -2e-3 -1e-3 -2e-3h-1.484c0.176 0.538 0.339 1.078 0.493 1.622h1.482c0-1e-3 -1e-3 -2e-3 -1e-3 -3e-3h1e-3v-1e-3c0.01 0 0.019 1e-3 0.03 1e-3 0.47 0 0.75-0.364 0.615-0.81-0.135-0.447-0.634-0.807-1.105-0.807m1.458-1.947c6e-3 0.441-0.021 0.735-0.061 0.882-0.05 0.188-0.167 0.336-0.281 0.44 0.678 0.322 1.221 0.841 1.4 1.432 0.275 0.907-0.401 1.68-1.497 1.794h-3.208c-0.492-1.927-1.123-3.828-1.892-5.686h1.429c0.291 0.699 0.56 1.405 0.81 2.115h1.264c0.155 0 0.272-0.023 0.353-0.071 0.083-0.047 0.146-0.156 0.188-0.326s0.061-0.438 0.05-0.803c-0.01-0.306-0.023-0.611-0.039-0.915h1.459c0.014 0.377 0.022 0.757 0.025 1.138" style="fill:#0b0204"/>
   </g>
   <g transform="translate(629.488 566.396)">
    <path d="m0 0c0.042-0.299-0.169-0.543-0.464-0.543h-2.063c-0.296 0-0.568 0.244-0.61 0.543-0.111 0.795-0.245 1.588-0.402 2.378-0.06 0.296 0.13 0.538 0.425 0.538h2.064c0.295 0 0.588-0.242 0.648-0.538 0.157-0.79 0.291-1.583 0.402-2.378m0.054 3.707c-0.428 0.258-0.901 0.389-1.413 0.394h-1.955c-0.525 0-0.942-0.131-1.255-0.394-0.315-0.263-0.43-0.583-0.351-0.96 0.215-1.033 0.391-2.071 0.527-3.114 0.049-0.378 0.272-0.701 0.671-0.97 0.401-0.269 0.865-0.404 1.398-0.403h1.957c0.518 5e-3 0.947 0.139 1.282 0.403 0.342 0.269 0.49 0.592 0.441 0.97-0.136 1.043-0.312 2.081-0.528 3.114-0.078 0.377-0.338 0.697-0.774 0.96" style="fill:#0b0204"/>
   </g>
   <g transform="translate(629.206 552.508)">
    <path d="m0 0c-0.055-0.297-0.344-0.54-0.639-0.54h-2.064c-0.295 0-0.488 0.243-0.434 0.54 0.145 0.791 0.267 1.585 0.366 2.382 0.038 0.299 0.305 0.544 0.6 0.544h2.065c0.294 0 0.509-0.245 0.471-0.544-0.098-0.797-0.22-1.591-0.365-2.382m1.255 3.729c-0.345 0.262-0.775 0.395-1.285 0.4v1e-3h-1.955c-0.525 0-0.985-0.134-1.384-0.401-0.4-0.268-0.619-0.593-0.663-0.975-0.12-1.044-0.28-2.084-0.479-3.119-0.072-0.375 0.046-0.695 0.36-0.96 0.313-0.266 0.735-0.398 1.267-0.398h1.957v1e-3c0.521 5e-3 0.992 0.137 1.412 0.397 0.428 0.265 0.681 0.585 0.753 0.96 0.199 1.035 0.359 2.075 0.479 3.119 0.044 0.382-0.112 0.707-0.462 0.975" style="fill:#0b0204"/>
   </g>
   <g transform="translate(651.205 554.656)">
    <path d="m0 0v-0.233h0.208c0.125 0 0.15 0.05 0.15 0.128 0 0.066-0.049 0.105-0.194 0.105zm-0.261 0.205h0.413c0.33 0 0.467-0.091 0.467-0.338 0-0.161-0.072-0.275-0.247-0.292l0.231-0.441h-0.294l-0.214 0.428h-0.095v-0.428h-0.261zm0.416-1.262c0.403 0 0.728 0.324 0.728 0.726 0 0.403-0.325 0.728-0.728 0.728-0.402 0-0.726-0.325-0.726-0.728 0-0.402 0.324-0.726 0.726-0.726m0 1.781c0.583 0 1.055-0.472 1.055-1.055 0-0.582-0.472-1.054-1.055-1.054-0.582 0-1.054 0.472-1.054 1.054 0 0.583 0.472 1.055 1.054 1.055" style="fill:#0b0204"/>
   </g>
  </g>
 </g>
</svg>
